<svg xmlns="http://www.w3.org/2000/svg" xmlns:xlink="http://www.w3.org/1999/xlink" contentStyleType="text/css" data-diagram-type="DESCRIPTION" height="874px" preserveAspectRatio="none" style="width:3062px;height:874px;background:#FFFFFF;" version="1.1" viewBox="0 0 3062 874" width="3062px" zoomAndPan="magnify"><title>AUGMS - Package Diagram (Layered Architecture)</title><defs/><g><g class="title" data-source-line="5"><text fill="#000000" font-family="Verdana" font-size="22" font-weight="bold" lengthAdjust="spacing" textLength="621.5859" x="1215.707" y="35.4209">AUGMS - Package Diagram (Layered Architecture)</text></g><!--cluster View Layer--><g class="cluster" data-qualified-name="View Layer" data-source-line="10" id="ent0002"><rect fill="#ADD8E6" height="318.89" rx="2.5" ry="2.5" style="stroke:#000000;stroke-width:1;" width="647" x="585" y="58.6094"/><text fill="#000000" font-family="Verdana" font-size="14" font-weight="bold" lengthAdjust="spacing" textLength="86.8301" x="865.085" y="73.6045">View Layer</text></g><!--cluster Controllers--><g class="cluster" data-qualified-name="Controllers" data-source-line="24" id="ent0011"><rect fill="#90EE90" height="358.89" rx="2.5" ry="2.5" style="stroke:#000000;stroke-width:1;" width="832" x="2224" y="164.9094"/><text fill="#000000" font-family="Verdana" font-size="14" font-weight="bold" lengthAdjust="spacing" textLength="87.4043" x="2596.2979" y="179.9045">Controllers</text></g><!--cluster Domain Layer--><g class="cluster" data-qualified-name="Domain Layer" data-source-line="39" id="ent0021"><rect fill="#FFFFE0" height="398.89" rx="2.5" ry="2.5" style="stroke:#000000;stroke-width:1;" width="912" x="1272" y="271.2094"/><text fill="#000000" font-family="Verdana" font-size="14" font-weight="bold" lengthAdjust="spacing" textLength="108.8076" x="1673.5962" y="286.2045">Domain Layer</text></g><!--cluster DAO--><g class="cluster" data-qualified-name="DAO" data-source-line="56" id="ent0033"><rect fill="#E6E6FA" height="351.89" rx="2.5" ry="2.5" style="stroke:#000000;stroke-width:1;" width="582" x="12" y="417.4994"/><text fill="#000000" font-family="Verdana" font-size="14" font-weight="bold" lengthAdjust="spacing" textLength="34.3574" x="285.8213" y="432.4945">DAO</text></g><!--cluster Entity--><g class="cluster" data-qualified-name="Entity" data-source-line="71" id="ent0043"><rect fill="#FFDAB9" height="304.89" rx="2.5" ry="2.5" style="stroke:#000000;stroke-width:1;" width="598" x="634" y="563.7994"/><text fill="#000000" font-family="Verdana" font-size="14" font-weight="bold" lengthAdjust="spacing" textLength="46.8398" x="909.5801" y="578.7945">Entity</text></g><!--entity Registration--><g class="entity" data-qualified-name="View Layer.Registration" data-source-line="11" id="ent0003"><path d="M627.73,101.6094 L738.2788,101.6094 A3.75,3.75 0 0 1 740.7788,104.1094 L747.7788,123.9063 L762.2788,123.9063 A2.5,2.5 0 0 1 764.7788,126.4063 L764.7788,138.4063 A2.5,2.5 0 0 1 762.2788,140.9063 L627.73,140.9063 A2.5,2.5 0 0 1 625.23,138.4063 L625.23,104.1094 A2.5,2.5 0 0 1 627.73,101.6094" fill="#FFFFFF" style="stroke:#000000;stroke-width:1;"/><line style="stroke:#000000;stroke-width:1;" x1="625.23" x2="747.7788" y1="123.9063" y2="123.9063"/><text fill="#000000" font-family="Verdana" font-size="14" font-weight="bold" lengthAdjust="spacing" textLength="97.5488" x="635.23" y="117.6045">Registration</text></g><!--entity Transaction--><g class="entity" data-qualified-name="View Layer.Transaction" data-source-line="12" id="ent0004"><path d="M836.99,101.6094 L943.0134,101.6094 A3.75,3.75 0 0 1 945.5134,104.1094 L952.5134,123.9063 L967.0134,123.9063 A2.5,2.5 0 0 1 969.5134,126.4063 L969.5134,138.4063 A2.5,2.5 0 0 1 967.0134,140.9063 L836.99,140.9063 A2.5,2.5 0 0 1 834.49,138.4063 L834.49,104.1094 A2.5,2.5 0 0 1 836.99,101.6094" fill="#FFFFFF" style="stroke:#000000;stroke-width:1;"/><line style="stroke:#000000;stroke-width:1;" x1="834.49" x2="952.5134" y1="123.9063" y2="123.9063"/><text fill="#000000" font-family="Verdana" font-size="14" font-weight="bold" lengthAdjust="spacing" textLength="93.0234" x="844.49" y="117.6045">Transaction</text></g><!--entity VehicleUpdate--><g class="entity" data-qualified-name="View Layer.VehicleUpdate" data-source-line="13" id="ent0005"><path d="M1025.13,101.6094 L1152.8644,101.6094 A3.75,3.75 0 0 1 1155.3644,104.1094 L1162.3644,123.9063 L1176.8644,123.9063 A2.5,2.5 0 0 1 1179.3644,126.4063 L1179.3644,138.4063 A2.5,2.5 0 0 1 1176.8644,140.9063 L1025.13,140.9063 A2.5,2.5 0 0 1 1022.63,138.4063 L1022.63,104.1094 A2.5,2.5 0 0 1 1025.13,101.6094" fill="#FFFFFF" style="stroke:#000000;stroke-width:1;"/><line style="stroke:#000000;stroke-width:1;" x1="1022.63" x2="1162.3644" y1="123.9063" y2="123.9063"/><text fill="#000000" font-family="Verdana" font-size="14" font-weight="bold" lengthAdjust="spacing" textLength="114.7344" x="1032.63" y="117.6045">VehicleUpdate</text></g><!--entity ParkingStatus--><g class="entity" data-qualified-name="View Layer.ParkingStatus" data-source-line="14" id="ent0006"><path d="M611.54,207.9094 L736.4648,207.9094 A3.75,3.75 0 0 1 738.9648,210.4094 L745.9648,230.2063 L760.4648,230.2063 A2.5,2.5 0 0 1 762.9648,232.7063 L762.9648,244.7063 A2.5,2.5 0 0 1 760.4648,247.2063 L611.54,247.2063 A2.5,2.5 0 0 1 609.04,244.7063 L609.04,210.4094 A2.5,2.5 0 0 1 611.54,207.9094" fill="#FFFFFF" style="stroke:#000000;stroke-width:1;"/><line style="stroke:#000000;stroke-width:1;" x1="609.04" x2="745.9648" y1="230.2063" y2="230.2063"/><text fill="#000000" font-family="Verdana" font-size="14" font-weight="bold" lengthAdjust="spacing" textLength="111.9248" x="619.04" y="223.9045">ParkingStatus</text></g><!--entity ServiceRequest--><g class="entity" data-qualified-name="View Layer.ServiceRequest" data-source-line="15" id="ent0007"><path d="M800.01,207.9094 L935.9954,207.9094 A3.75,3.75 0 0 1 938.4954,210.4094 L945.4954,230.2063 L959.9954,230.2063 A2.5,2.5 0 0 1 962.4954,232.7063 L962.4954,244.7063 A2.5,2.5 0 0 1 959.9954,247.2063 L800.01,247.2063 A2.5,2.5 0 0 1 797.51,244.7063 L797.51,210.4094 A2.5,2.5 0 0 1 800.01,207.9094" fill="#FFFFFF" style="stroke:#000000;stroke-width:1;"/><line style="stroke:#000000;stroke-width:1;" x1="797.51" x2="945.4954" y1="230.2063" y2="230.2063"/><text fill="#000000" font-family="Verdana" font-size="14" font-weight="bold" lengthAdjust="spacing" textLength="122.9854" x="807.51" y="223.9045">ServiceRequest</text></g><!--entity VehicleManagement--><g class="entity" data-qualified-name="View Layer.VehicleManagement" data-source-line="16" id="ent0008"><path d="M1000.13,207.9094 L1173.8702,207.9094 A3.75,3.75 0 0 1 1176.3702,210.4094 L1183.3702,230.2063 L1197.8702,230.2063 A2.5,2.5 0 0 1 1200.3702,232.7063 L1200.3702,244.7063 A2.5,2.5 0 0 1 1197.8702,247.2063 L1000.13,247.2063 A2.5,2.5 0 0 1 997.63,244.7063 L997.63,210.4094 A2.5,2.5 0 0 1 1000.13,207.9094" fill="#FFFFFF" style="stroke:#000000;stroke-width:1;"/><line style="stroke:#000000;stroke-width:1;" x1="997.63" x2="1183.3702" y1="230.2063" y2="230.2063"/><text fill="#000000" font-family="Verdana" font-size="14" font-weight="bold" lengthAdjust="spacing" textLength="160.7402" x="1007.63" y="223.9045">VehicleManagement</text></g><!--entity SensorAlert--><g class="entity" data-qualified-name="View Layer.SensorAlert" data-source-line="17" id="ent0009"><path d="M615.94,314.2094 L722.066,314.2094 A3.75,3.75 0 0 1 724.566,316.7094 L731.566,336.5063 L746.066,336.5063 A2.5,2.5 0 0 1 748.566,339.0063 L748.566,351.0063 A2.5,2.5 0 0 1 746.066,353.5063 L615.94,353.5063 A2.5,2.5 0 0 1 613.44,351.0063 L613.44,316.7094 A2.5,2.5 0 0 1 615.94,314.2094" fill="#FFFFFF" style="stroke:#000000;stroke-width:1;"/><line style="stroke:#000000;stroke-width:1;" x1="613.44" x2="731.566" y1="336.5063" y2="336.5063"/><text fill="#000000" font-family="Verdana" font-size="14" font-weight="bold" lengthAdjust="spacing" textLength="93.126" x="623.44" y="330.2045">SensorAlert</text></g><!--entity Report--><g class="entity" data-qualified-name="View Layer.Report" data-source-line="18" id="ent0010"><path d="M785.74,314.2094 L852.2517,314.2094 A3.75,3.75 0 0 1 854.7517,316.7094 L861.7517,336.5063 L876.2517,336.5063 A2.5,2.5 0 0 1 878.7517,339.0063 L878.7517,351.0063 A2.5,2.5 0 0 1 876.2517,353.5063 L785.74,353.5063 A2.5,2.5 0 0 1 783.24,351.0063 L783.24,316.7094 A2.5,2.5 0 0 1 785.74,314.2094" fill="#FFFFFF" style="stroke:#000000;stroke-width:1;"/><line style="stroke:#000000;stroke-width:1;" x1="783.24" x2="861.7517" y1="336.5063" y2="336.5063"/><text fill="#000000" font-family="Verdana" font-size="14" font-weight="bold" lengthAdjust="spacing" textLength="53.5117" x="793.24" y="330.2045">Report</text></g><!--entity RegistrationController--><g class="entity" data-qualified-name="Controllers.RegistrationController" data-source-line="25" id="ent0012"><path d="M2548.19,207.9094 L2737.8101,207.9094 A3.75,3.75 0 0 1 2740.3101,210.4094 L2747.3101,230.2063 L2761.8101,230.2063 A2.5,2.5 0 0 1 2764.3101,232.7063 L2764.3101,244.7063 A2.5,2.5 0 0 1 2761.8101,247.2063 L2548.19,247.2063 A2.5,2.5 0 0 1 2545.69,244.7063 L2545.69,210.4094 A2.5,2.5 0 0 1 2548.19,207.9094" fill="#FFFFFF" style="stroke:#000000;stroke-width:1;"/><line style="stroke:#000000;stroke-width:1;" x1="2545.69" x2="2747.3101" y1="230.2063" y2="230.2063"/><text fill="#000000" font-family="Verdana" font-size="14" font-weight="bold" lengthAdjust="spacing" textLength="176.6201" x="2555.69" y="223.9045">RegistrationController</text></g><!--entity ParkingStatusController--><g class="entity" data-qualified-name="Controllers.ParkingStatusController" data-source-line="26" id="ent0013"><path d="M2802,207.9094 L3005.9961,207.9094 A3.75,3.75 0 0 1 3008.4961,210.4094 L3015.4961,230.2063 L3029.9961,230.2063 A2.5,2.5 0 0 1 3032.4961,232.7063 L3032.4961,244.7063 A2.5,2.5 0 0 1 3029.9961,247.2063 L2802,247.2063 A2.5,2.5 0 0 1 2799.5,244.7063 L2799.5,210.4094 A2.5,2.5 0 0 1 2802,207.9094" fill="#FFFFFF" style="stroke:#000000;stroke-width:1;"/><line style="stroke:#000000;stroke-width:1;" x1="2799.5" x2="3015.4961" y1="230.2063" y2="230.2063"/><text fill="#000000" font-family="Verdana" font-size="14" font-weight="bold" lengthAdjust="spacing" textLength="190.9961" x="2809.5" y="223.9045">ParkingStatusController</text></g><!--entity ServiceRequestController--><g class="entity" data-qualified-name="Controllers.ServiceRequestController" data-source-line="27" id="ent0014"><path d="M2269.47,207.9094 L2484.5266,207.9094 A3.75,3.75 0 0 1 2487.0266,210.4094 L2494.0266,230.2063 L2508.5266,230.2063 A2.5,2.5 0 0 1 2511.0266,232.7063 L2511.0266,244.7063 A2.5,2.5 0 0 1 2508.5266,247.2063 L2269.47,247.2063 A2.5,2.5 0 0 1 2266.97,244.7063 L2266.97,210.4094 A2.5,2.5 0 0 1 2269.47,207.9094" fill="#FFFFFF" style="stroke:#000000;stroke-width:1;"/><line style="stroke:#000000;stroke-width:1;" x1="2266.97" x2="2494.0266" y1="230.2063" y2="230.2063"/><text fill="#000000" font-family="Verdana" font-size="14" font-weight="bold" lengthAdjust="spacing" textLength="202.0566" x="2276.97" y="223.9045">ServiceRequestController</text></g><!--entity VehicleManagementController--><g class="entity" data-qualified-name="Controllers.VehicleManagementController" data-source-line="28" id="ent0015"><path d="M2258.59,314.2094 L2511.4015,314.2094 A3.75,3.75 0 0 1 2513.9015,316.7094 L2520.9015,336.5063 L2535.4015,336.5063 A2.5,2.5 0 0 1 2537.9015,339.0063 L2537.9015,351.0063 A2.5,2.5 0 0 1 2535.4015,353.5063 L2258.59,353.5063 A2.5,2.5 0 0 1 2256.09,351.0063 L2256.09,316.7094 A2.5,2.5 0 0 1 2258.59,314.2094" fill="#FFFFFF" style="stroke:#000000;stroke-width:1;"/><line style="stroke:#000000;stroke-width:1;" x1="2256.09" x2="2520.9015" y1="336.5063" y2="336.5063"/><text fill="#000000" font-family="Verdana" font-size="14" font-weight="bold" lengthAdjust="spacing" textLength="239.8115" x="2266.09" y="330.2045">VehicleManagementController</text></g><!--entity UserAccessController--><g class="entity" data-qualified-name="Controllers.UserAccessController" data-source-line="29" id="ent0016"><path d="M2575.12,314.2094 L2756.8856,314.2094 A3.75,3.75 0 0 1 2759.3856,316.7094 L2766.3856,336.5063 L2780.8856,336.5063 A2.5,2.5 0 0 1 2783.3856,339.0063 L2783.3856,351.0063 A2.5,2.5 0 0 1 2780.8856,353.5063 L2575.12,353.5063 A2.5,2.5 0 0 1 2572.62,351.0063 L2572.62,316.7094 A2.5,2.5 0 0 1 2575.12,314.2094" fill="#FFFFFF" style="stroke:#000000;stroke-width:1;"/><line style="stroke:#000000;stroke-width:1;" x1="2572.62" x2="2766.3856" y1="336.5063" y2="336.5063"/><text fill="#000000" font-family="Verdana" font-size="14" font-weight="bold" lengthAdjust="spacing" textLength="168.7656" x="2582.62" y="330.2045">UserAccessController</text></g><!--entity SensorAlertController--><g class="entity" data-qualified-name="Controllers.SensorAlertController" data-source-line="30" id="ent0017"><path d="M2820.4,314.2094 L3005.5973,314.2094 A3.75,3.75 0 0 1 3008.0973,316.7094 L3015.0973,336.5063 L3029.5973,336.5063 A2.5,2.5 0 0 1 3032.0973,339.0063 L3032.0973,351.0063 A2.5,2.5 0 0 1 3029.5973,353.5063 L2820.4,353.5063 A2.5,2.5 0 0 1 2817.9,351.0063 L2817.9,316.7094 A2.5,2.5 0 0 1 2820.4,314.2094" fill="#FFFFFF" style="stroke:#000000;stroke-width:1;"/><line style="stroke:#000000;stroke-width:1;" x1="2817.9" x2="3015.0973" y1="336.5063" y2="336.5063"/><text fill="#000000" font-family="Verdana" font-size="14" font-weight="bold" lengthAdjust="spacing" textLength="172.1973" x="2827.9" y="330.2045">SensorAlertController</text></g><!--entity ReportController--><g class="entity" data-qualified-name="Controllers.ReportController" data-source-line="31" id="ent0018"><path d="M2312.21,460.4994 L2457.793,460.4994 A3.75,3.75 0 0 1 2460.293,462.9994 L2467.293,482.7963 L2481.793,482.7963 A2.5,2.5 0 0 1 2484.293,485.2963 L2484.293,497.2963 A2.5,2.5 0 0 1 2481.793,499.7963 L2312.21,499.7963 A2.5,2.5 0 0 1 2309.71,497.2963 L2309.71,462.9994 A2.5,2.5 0 0 1 2312.21,460.4994" fill="#FFFFFF" style="stroke:#000000;stroke-width:1;"/><line style="stroke:#000000;stroke-width:1;" x1="2309.71" x2="2467.293" y1="482.7963" y2="482.7963"/><text fill="#000000" font-family="Verdana" font-size="14" font-weight="bold" lengthAdjust="spacing" textLength="132.583" x="2319.71" y="476.4945">ReportController</text></g><!--entity VehicleUpdateController--><g class="entity" data-qualified-name="Controllers.VehicleUpdateController" data-source-line="32" id="ent0019"><path d="M2521.6,460.4994 L2728.4057,460.4994 A3.75,3.75 0 0 1 2730.9057,462.9994 L2737.9057,482.7963 L2752.4057,482.7963 A2.5,2.5 0 0 1 2754.9057,485.2963 L2754.9057,497.2963 A2.5,2.5 0 0 1 2752.4057,499.7963 L2521.6,499.7963 A2.5,2.5 0 0 1 2519.1,497.2963 L2519.1,462.9994 A2.5,2.5 0 0 1 2521.6,460.4994" fill="#FFFFFF" style="stroke:#000000;stroke-width:1;"/><line style="stroke:#000000;stroke-width:1;" x1="2519.1" x2="2737.9057" y1="482.7963" y2="482.7963"/><text fill="#000000" font-family="Verdana" font-size="14" font-weight="bold" lengthAdjust="spacing" textLength="193.8057" x="2529.1" y="476.4945">VehicleUpdateController</text></g><!--entity BillingController--><g class="entity" data-qualified-name="Controllers.BillingController" data-source-line="33" id="ent0020"><path d="M2792.04,460.4994 L2933.9658,460.4994 A3.75,3.75 0 0 1 2936.4658,462.9994 L2943.4658,482.7963 L2957.9658,482.7963 A2.5,2.5 0 0 1 2960.4658,485.2963 L2960.4658,497.2963 A2.5,2.5 0 0 1 2957.9658,499.7963 L2792.04,499.7963 A2.5,2.5 0 0 1 2789.54,497.2963 L2789.54,462.9994 A2.5,2.5 0 0 1 2792.04,460.4994" fill="#FFFFFF" style="stroke:#000000;stroke-width:1;"/><line style="stroke:#000000;stroke-width:1;" x1="2789.54" x2="2943.4658" y1="482.7963" y2="482.7963"/><text fill="#000000" font-family="Verdana" font-size="14" font-weight="bold" lengthAdjust="spacing" textLength="128.9258" x="2799.54" y="476.4945">BillingController</text></g><!--entity RegistrationService--><g class="entity" data-qualified-name="Domain Layer.RegistrationService" data-source-line="40" id="ent0022"><path d="M1317.62,314.2094 L1486.37,314.2094 A3.75,3.75 0 0 1 1488.87,316.7094 L1495.87,336.5063 L1510.37,336.5063 A2.5,2.5 0 0 1 1512.87,339.0063 L1512.87,351.0063 A2.5,2.5 0 0 1 1510.37,353.5063 L1317.62,353.5063 A2.5,2.5 0 0 1 1315.12,351.0063 L1315.12,316.7094 A2.5,2.5 0 0 1 1317.62,314.2094" fill="#FFFFFF" style="stroke:#000000;stroke-width:1;"/><line style="stroke:#000000;stroke-width:1;" x1="1315.12" x2="1495.87" y1="336.5063" y2="336.5063"/><text fill="#000000" font-family="Verdana" font-size="14" font-weight="bold" lengthAdjust="spacing" textLength="155.75" x="1325.12" y="330.2045">RegistrationService</text></g><!--entity VehicleService--><g class="entity" data-qualified-name="Domain Layer.VehicleService" data-source-line="41" id="ent0023"><path d="M1550.56,314.2094 L1679.4496,314.2094 A3.75,3.75 0 0 1 1681.9496,316.7094 L1688.9496,336.5063 L1703.4496,336.5063 A2.5,2.5 0 0 1 1705.9496,339.0063 L1705.9496,351.0063 A2.5,2.5 0 0 1 1703.4496,353.5063 L1550.56,353.5063 A2.5,2.5 0 0 1 1548.06,351.0063 L1548.06,316.7094 A2.5,2.5 0 0 1 1550.56,314.2094" fill="#FFFFFF" style="stroke:#000000;stroke-width:1;"/><line style="stroke:#000000;stroke-width:1;" x1="1548.06" x2="1688.9496" y1="336.5063" y2="336.5063"/><text fill="#000000" font-family="Verdana" font-size="14" font-weight="bold" lengthAdjust="spacing" textLength="115.8896" x="1558.06" y="330.2045">VehicleService</text></g><!--entity ParkingService--><g class="entity" data-qualified-name="Domain Layer.ParkingService" data-source-line="42" id="ent0024"><path d="M1743.04,314.2094 L1874.9511,314.2094 A3.75,3.75 0 0 1 1877.4511,316.7094 L1884.4511,336.5063 L1898.9511,336.5063 A2.5,2.5 0 0 1 1901.4511,339.0063 L1901.4511,351.0063 A2.5,2.5 0 0 1 1898.9511,353.5063 L1743.04,353.5063 A2.5,2.5 0 0 1 1740.54,351.0063 L1740.54,316.7094 A2.5,2.5 0 0 1 1743.04,314.2094" fill="#FFFFFF" style="stroke:#000000;stroke-width:1;"/><line style="stroke:#000000;stroke-width:1;" x1="1740.54" x2="1884.4511" y1="336.5063" y2="336.5063"/><text fill="#000000" font-family="Verdana" font-size="14" font-weight="bold" lengthAdjust="spacing" textLength="118.9111" x="1750.54" y="330.2045">ParkingService</text></g><!--entity ServiceRequestService--><g class="entity" data-qualified-name="Domain Layer.ServiceRequestService" data-source-line="43" id="ent0025"><path d="M1938.91,314.2094 L2133.0965,314.2094 A3.75,3.75 0 0 1 2135.5965,316.7094 L2142.5965,336.5063 L2157.0965,336.5063 A2.5,2.5 0 0 1 2159.5965,339.0063 L2159.5965,351.0063 A2.5,2.5 0 0 1 2157.0965,353.5063 L1938.91,353.5063 A2.5,2.5 0 0 1 1936.41,351.0063 L1936.41,316.7094 A2.5,2.5 0 0 1 1938.91,314.2094" fill="#FFFFFF" style="stroke:#000000;stroke-width:1;"/><line style="stroke:#000000;stroke-width:1;" x1="1936.41" x2="2142.5965" y1="336.5063" y2="336.5063"/><text fill="#000000" font-family="Verdana" font-size="14" font-weight="bold" lengthAdjust="spacing" textLength="181.1865" x="1946.41" y="330.2045">ServiceRequestService</text></g><!--entity BillingService--><g class="entity" data-qualified-name="Domain Layer.BillingService" data-source-line="44" id="ent0026"><path d="M1344.47,460.4994 L1465.5257,460.4994 A3.75,3.75 0 0 1 1468.0257,462.9994 L1475.0257,482.7963 L1489.5257,482.7963 A2.5,2.5 0 0 1 1492.0257,485.2963 L1492.0257,497.2963 A2.5,2.5 0 0 1 1489.5257,499.7963 L1344.47,499.7963 A2.5,2.5 0 0 1 1341.97,497.2963 L1341.97,462.9994 A2.5,2.5 0 0 1 1344.47,460.4994" fill="#FFFFFF" style="stroke:#000000;stroke-width:1;"/><line style="stroke:#000000;stroke-width:1;" x1="1341.97" x2="1475.0257" y1="482.7963" y2="482.7963"/><text fill="#000000" font-family="Verdana" font-size="14" font-weight="bold" lengthAdjust="spacing" textLength="108.0557" x="1351.97" y="476.4945">BillingService</text></g><!--entity AuthenticationService--><g class="entity" data-qualified-name="Domain Layer.AuthenticationService" data-source-line="45" id="ent0027"><path d="M1529.78,460.4994 L1718.2175,460.4994 A3.75,3.75 0 0 1 1720.7175,462.9994 L1727.7175,482.7963 L1742.2175,482.7963 A2.5,2.5 0 0 1 1744.7175,485.2963 L1744.7175,497.2963 A2.5,2.5 0 0 1 1742.2175,499.7963 L1529.78,499.7963 A2.5,2.5 0 0 1 1527.28,497.2963 L1527.28,462.9994 A2.5,2.5 0 0 1 1529.78,460.4994" fill="#FFFFFF" style="stroke:#000000;stroke-width:1;"/><line style="stroke:#000000;stroke-width:1;" x1="1527.28" x2="1727.7175" y1="482.7963" y2="482.7963"/><text fill="#000000" font-family="Verdana" font-size="14" font-weight="bold" lengthAdjust="spacing" textLength="175.4375" x="1537.28" y="476.4945">AuthenticationService</text></g><!--entity ReportingService--><g class="entity" data-qualified-name="Domain Layer.ReportingService" data-source-line="46" id="ent0028"><path d="M1782.25,460.4994 L1931.75,460.4994 A3.75,3.75 0 0 1 1934.25,462.9994 L1941.25,482.7963 L1955.75,482.7963 A2.5,2.5 0 0 1 1958.25,485.2963 L1958.25,497.2963 A2.5,2.5 0 0 1 1955.75,499.7963 L1782.25,499.7963 A2.5,2.5 0 0 1 1779.75,497.2963 L1779.75,462.9994 A2.5,2.5 0 0 1 1782.25,460.4994" fill="#FFFFFF" style="stroke:#000000;stroke-width:1;"/><line style="stroke:#000000;stroke-width:1;" x1="1779.75" x2="1941.25" y1="482.7963" y2="482.7963"/><text fill="#000000" font-family="Verdana" font-size="14" font-weight="bold" lengthAdjust="spacing" textLength="136.5" x="1789.75" y="476.4945">ReportingService</text></g><!--entity LoggingService--><g class="entity" data-qualified-name="Domain Layer.LoggingService" data-source-line="47" id="ent0029"><path d="M1995.71,460.4994 L2130.2803,460.4994 A3.75,3.75 0 0 1 2132.7803,462.9994 L2139.7803,482.7963 L2154.2803,482.7963 A2.5,2.5 0 0 1 2156.7803,485.2963 L2156.7803,497.2963 A2.5,2.5 0 0 1 2154.2803,499.7963 L1995.71,499.7963 A2.5,2.5 0 0 1 1993.21,497.2963 L1993.21,462.9994 A2.5,2.5 0 0 1 1995.71,460.4994" fill="#FFFFFF" style="stroke:#000000;stroke-width:1;"/><line style="stroke:#000000;stroke-width:1;" x1="1993.21" x2="2139.7803" y1="482.7963" y2="482.7963"/><text fill="#000000" font-family="Verdana" font-size="14" font-weight="bold" lengthAdjust="spacing" textLength="121.5703" x="2003.21" y="476.4945">LoggingService</text></g><!--entity VehicleUpdateService--><g class="entity" data-qualified-name="Domain Layer.VehicleUpdateService" data-source-line="48" id="ent0030"><path d="M1317.03,606.7994 L1502.9655,606.7994 A3.75,3.75 0 0 1 1505.4655,609.2994 L1512.4655,629.0963 L1526.9655,629.0963 A2.5,2.5 0 0 1 1529.4655,631.5963 L1529.4655,643.5963 A2.5,2.5 0 0 1 1526.9655,646.0963 L1317.03,646.0963 A2.5,2.5 0 0 1 1314.53,643.5963 L1314.53,609.2994 A2.5,2.5 0 0 1 1317.03,606.7994" fill="#FFFFFF" style="stroke:#000000;stroke-width:1;"/><line style="stroke:#000000;stroke-width:1;" x1="1314.53" x2="1512.4655" y1="629.0963" y2="629.0963"/><text fill="#000000" font-family="Verdana" font-size="14" font-weight="bold" lengthAdjust="spacing" textLength="172.9355" x="1324.53" y="622.7945">VehicleUpdateService</text></g><!--entity VehicleManagementService--><g class="entity" data-qualified-name="Domain Layer.VehicleManagementService" data-source-line="49" id="ent0031"><path d="M1567.03,606.7994 L1798.9714,606.7994 A3.75,3.75 0 0 1 1801.4714,609.2994 L1808.4714,629.0963 L1822.9714,629.0963 A2.5,2.5 0 0 1 1825.4714,631.5963 L1825.4714,643.5963 A2.5,2.5 0 0 1 1822.9714,646.0963 L1567.03,646.0963 A2.5,2.5 0 0 1 1564.53,643.5963 L1564.53,609.2994 A2.5,2.5 0 0 1 1567.03,606.7994" fill="#FFFFFF" style="stroke:#000000;stroke-width:1;"/><line style="stroke:#000000;stroke-width:1;" x1="1564.53" x2="1808.4714" y1="629.0963" y2="629.0963"/><text fill="#000000" font-family="Verdana" font-size="14" font-weight="bold" lengthAdjust="spacing" textLength="218.9414" x="1574.53" y="622.7945">VehicleManagementService</text></g><!--entity SensorAlertService--><g class="entity" data-qualified-name="Domain Layer.SensorAlertService" data-source-line="50" id="ent0032"><path d="M1862.84,606.7994 L2027.1671,606.7994 A3.75,3.75 0 0 1 2029.6671,609.2994 L2036.6671,629.0963 L2051.1671,629.0963 A2.5,2.5 0 0 1 2053.6671,631.5963 L2053.6671,643.5963 A2.5,2.5 0 0 1 2051.1671,646.0963 L1862.84,646.0963 A2.5,2.5 0 0 1 1860.34,643.5963 L1860.34,609.2994 A2.5,2.5 0 0 1 1862.84,606.7994" fill="#FFFFFF" style="stroke:#000000;stroke-width:1;"/><line style="stroke:#000000;stroke-width:1;" x1="1860.34" x2="2036.6671" y1="629.0963" y2="629.0963"/><text fill="#000000" font-family="Verdana" font-size="14" font-weight="bold" lengthAdjust="spacing" textLength="151.3271" x="1870.34" y="622.7945">SensorAlertService</text></g><!--entity UserDAO--><g class="entity" data-qualified-name="DAO.UserDAO" data-source-line="57" id="ent0034"><path d="M99.27,460.4994 L182.728,460.4994 A3.75,3.75 0 0 1 185.228,462.9994 L192.228,482.7963 L206.728,482.7963 A2.5,2.5 0 0 1 209.228,485.2963 L209.228,497.2963 A2.5,2.5 0 0 1 206.728,499.7963 L99.27,499.7963 A2.5,2.5 0 0 1 96.77,497.2963 L96.77,462.9994 A2.5,2.5 0 0 1 99.27,460.4994" fill="#FFFFFF" style="stroke:#000000;stroke-width:1;"/><line style="stroke:#000000;stroke-width:1;" x1="96.77" x2="192.228" y1="482.7963" y2="482.7963"/><text fill="#000000" font-family="Verdana" font-size="14" font-weight="bold" lengthAdjust="spacing" textLength="70.458" x="106.77" y="476.4945">UserDAO</text></g><!--entity VehicleDAO--><g class="entity" data-qualified-name="DAO.VehicleDAO" data-source-line="58" id="ent0035"><path d="M246.48,460.4994 L351.5259,460.4994 A3.75,3.75 0 0 1 354.0259,462.9994 L361.0259,482.7963 L375.5259,482.7963 A2.5,2.5 0 0 1 378.0259,485.2963 L378.0259,497.2963 A2.5,2.5 0 0 1 375.5259,499.7963 L246.48,499.7963 A2.5,2.5 0 0 1 243.98,497.2963 L243.98,462.9994 A2.5,2.5 0 0 1 246.48,460.4994" fill="#FFFFFF" style="stroke:#000000;stroke-width:1;"/><line style="stroke:#000000;stroke-width:1;" x1="243.98" x2="361.0259" y1="482.7963" y2="482.7963"/><text fill="#000000" font-family="Verdana" font-size="14" font-weight="bold" lengthAdjust="spacing" textLength="92.0459" x="253.98" y="476.4945">VehicleDAO</text></g><!--entity ParkingDAO--><g class="entity" data-qualified-name="DAO.ParkingDAO" data-source-line="59" id="ent0036"><path d="M415.97,460.4994 L524.0374,460.4994 A3.75,3.75 0 0 1 526.5374,462.9994 L533.5374,482.7963 L548.0374,482.7963 A2.5,2.5 0 0 1 550.5374,485.2963 L550.5374,497.2963 A2.5,2.5 0 0 1 548.0374,499.7963 L415.97,499.7963 A2.5,2.5 0 0 1 413.47,497.2963 L413.47,462.9994 A2.5,2.5 0 0 1 415.97,460.4994" fill="#FFFFFF" style="stroke:#000000;stroke-width:1;"/><line style="stroke:#000000;stroke-width:1;" x1="413.47" x2="533.5374" y1="482.7963" y2="482.7963"/><text fill="#000000" font-family="Verdana" font-size="14" font-weight="bold" lengthAdjust="spacing" textLength="95.0674" x="423.47" y="476.4945">ParkingDAO</text></g><!--entity SensorDAO--><g class="entity" data-qualified-name="DAO.SensorDAO" data-source-line="60" id="ent0037"><path d="M38.12,606.7994 L139.8778,606.7994 A3.75,3.75 0 0 1 142.3778,609.2994 L149.3778,629.0963 L163.8778,629.0963 A2.5,2.5 0 0 1 166.3778,631.5963 L166.3778,643.5963 A2.5,2.5 0 0 1 163.8778,646.0963 L38.12,646.0963 A2.5,2.5 0 0 1 35.62,643.5963 L35.62,609.2994 A2.5,2.5 0 0 1 38.12,606.7994" fill="#FFFFFF" style="stroke:#000000;stroke-width:1;"/><line style="stroke:#000000;stroke-width:1;" x1="35.62" x2="149.3778" y1="629.0963" y2="629.0963"/><text fill="#000000" font-family="Verdana" font-size="14" font-weight="bold" lengthAdjust="spacing" textLength="88.7578" x="45.62" y="622.7945">SensorDAO</text></g><!--entity ServiceRequestDAO--><g class="entity" data-qualified-name="DAO.ServiceRequestDAO" data-source-line="61" id="ent0038"><path d="M203.83,606.7994 L374.1728,606.7994 A3.75,3.75 0 0 1 376.6728,609.2994 L383.6728,629.0963 L398.1728,629.0963 A2.5,2.5 0 0 1 400.6728,631.5963 L400.6728,643.5963 A2.5,2.5 0 0 1 398.1728,646.0963 L203.83,646.0963 A2.5,2.5 0 0 1 201.33,643.5963 L201.33,609.2994 A2.5,2.5 0 0 1 203.83,606.7994" fill="#FFFFFF" style="stroke:#000000;stroke-width:1;"/><line style="stroke:#000000;stroke-width:1;" x1="201.33" x2="383.6728" y1="629.0963" y2="629.0963"/><text fill="#000000" font-family="Verdana" font-size="14" font-weight="bold" lengthAdjust="spacing" textLength="157.3428" x="211.33" y="622.7945">ServiceRequestDAO</text></g><!--entity BillingDAO--><g class="entity" data-qualified-name="DAO.BillingDAO" data-source-line="62" id="ent0039"><path d="M438.39,606.7994 L535.6019,606.7994 A3.75,3.75 0 0 1 538.1019,609.2994 L545.1019,629.0963 L559.6019,629.0963 A2.5,2.5 0 0 1 562.1019,631.5963 L562.1019,643.5963 A2.5,2.5 0 0 1 559.6019,646.0963 L438.39,646.0963 A2.5,2.5 0 0 1 435.89,643.5963 L435.89,609.2994 A2.5,2.5 0 0 1 438.39,606.7994" fill="#FFFFFF" style="stroke:#000000;stroke-width:1;"/><line style="stroke:#000000;stroke-width:1;" x1="435.89" x2="545.1019" y1="629.0963" y2="629.0963"/><text fill="#000000" font-family="Verdana" font-size="14" font-weight="bold" lengthAdjust="spacing" textLength="84.2119" x="445.89" y="622.7945">BillingDAO</text></g><!--entity LoggingDAO--><g class="entity" data-qualified-name="DAO.LoggingDAO" data-source-line="63" id="ent0040"><path d="M38.64,706.0994 L149.3666,706.0994 A3.75,3.75 0 0 1 151.8666,708.5994 L158.8666,728.3963 L173.3666,728.3963 A2.5,2.5 0 0 1 175.8666,730.8963 L175.8666,742.8963 A2.5,2.5 0 0 1 173.3666,745.3963 L38.64,745.3963 A2.5,2.5 0 0 1 36.14,742.8963 L36.14,708.5994 A2.5,2.5 0 0 1 38.64,706.0994" fill="#FFFFFF" style="stroke:#000000;stroke-width:1;"/><line style="stroke:#000000;stroke-width:1;" x1="36.14" x2="158.8666" y1="728.3963" y2="728.3963"/><text fill="#000000" font-family="Verdana" font-size="14" font-weight="bold" lengthAdjust="spacing" textLength="97.7266" x="46.14" y="722.0945">LoggingDAO</text></g><!--entity GarageDAO--><g class="entity" data-qualified-name="DAO.GarageDAO" data-source-line="64" id="ent0041"><path d="M212.92,706.0994 L317.0841,706.0994 A3.75,3.75 0 0 1 319.5841,708.5994 L326.5841,728.3963 L341.0841,728.3963 A2.5,2.5 0 0 1 343.5841,730.8963 L343.5841,742.8963 A2.5,2.5 0 0 1 341.0841,745.3963 L212.92,745.3963 A2.5,2.5 0 0 1 210.42,742.8963 L210.42,708.5994 A2.5,2.5 0 0 1 212.92,706.0994" fill="#FFFFFF" style="stroke:#000000;stroke-width:1;"/><line style="stroke:#000000;stroke-width:1;" x1="210.42" x2="326.5841" y1="728.3963" y2="728.3963"/><text fill="#000000" font-family="Verdana" font-size="14" font-weight="bold" lengthAdjust="spacing" textLength="91.1641" x="220.42" y="722.0945">GarageDAO</text></g><!--entity ReportingDAO--><g class="entity" data-qualified-name="DAO.ReportingDAO" data-source-line="65" id="ent0042"><path d="M381.17,706.0994 L506.8263,706.0994 A3.75,3.75 0 0 1 509.3263,708.5994 L516.3263,728.3963 L530.8263,728.3963 A2.5,2.5 0 0 1 533.3263,730.8963 L533.3263,742.8963 A2.5,2.5 0 0 1 530.8263,745.3963 L381.17,745.3963 A2.5,2.5 0 0 1 378.67,742.8963 L378.67,708.5994 A2.5,2.5 0 0 1 381.17,706.0994" fill="#FFFFFF" style="stroke:#000000;stroke-width:1;"/><line style="stroke:#000000;stroke-width:1;" x1="378.67" x2="516.3263" y1="728.3963" y2="728.3963"/><text fill="#000000" font-family="Verdana" font-size="14" font-weight="bold" lengthAdjust="spacing" textLength="112.6563" x="388.67" y="722.0945">ReportingDAO</text></g><!--entity UserDomain--><g class="entity" data-qualified-name="Entity.UserDomain" data-source-line="72" id="ent0044"><path d="M660.43,606.7994 L769.5706,606.7994 A3.75,3.75 0 0 1 772.0706,609.2994 L779.0706,629.0963 L793.5706,629.0963 A2.5,2.5 0 0 1 796.0706,631.5963 L796.0706,643.5963 A2.5,2.5 0 0 1 793.5706,646.0963 L660.43,646.0963 A2.5,2.5 0 0 1 657.93,643.5963 L657.93,609.2994 A2.5,2.5 0 0 1 660.43,606.7994" fill="#FFFFFF" style="stroke:#000000;stroke-width:1;"/><line style="stroke:#000000;stroke-width:1;" x1="657.93" x2="779.0706" y1="629.0963" y2="629.0963"/><text fill="#000000" font-family="Verdana" font-size="14" font-weight="bold" lengthAdjust="spacing" textLength="96.1406" x="667.93" y="622.7945">UserDomain</text></g><!--entity VehicleDomain--><g class="entity" data-qualified-name="Entity.VehicleDomain" data-source-line="73" id="ent0045"><path d="M833.64,606.7994 L964.3685,606.7994 A3.75,3.75 0 0 1 966.8685,609.2994 L973.8685,629.0963 L988.3685,629.0963 A2.5,2.5 0 0 1 990.8685,631.5963 L990.8685,643.5963 A2.5,2.5 0 0 1 988.3685,646.0963 L833.64,646.0963 A2.5,2.5 0 0 1 831.14,643.5963 L831.14,609.2994 A2.5,2.5 0 0 1 833.64,606.7994" fill="#FFFFFF" style="stroke:#000000;stroke-width:1;"/><line style="stroke:#000000;stroke-width:1;" x1="831.14" x2="973.8685" y1="629.0963" y2="629.0963"/><text fill="#000000" font-family="Verdana" font-size="14" font-weight="bold" lengthAdjust="spacing" textLength="117.7285" x="841.14" y="622.7945">VehicleDomain</text></g><!--entity ParkingDomain--><g class="entity" data-qualified-name="Entity.ParkingDomain" data-source-line="74" id="ent0046"><path d="M1028.12,606.7994 L1161.87,606.7994 A3.75,3.75 0 0 1 1164.37,609.2994 L1171.37,629.0963 L1185.87,629.0963 A2.5,2.5 0 0 1 1188.37,631.5963 L1188.37,643.5963 A2.5,2.5 0 0 1 1185.87,646.0963 L1028.12,646.0963 A2.5,2.5 0 0 1 1025.62,643.5963 L1025.62,609.2994 A2.5,2.5 0 0 1 1028.12,606.7994" fill="#FFFFFF" style="stroke:#000000;stroke-width:1;"/><line style="stroke:#000000;stroke-width:1;" x1="1025.62" x2="1171.37" y1="629.0963" y2="629.0963"/><text fill="#000000" font-family="Verdana" font-size="14" font-weight="bold" lengthAdjust="spacing" textLength="120.75" x="1035.62" y="622.7945">ParkingDomain</text></g><!--entity SensorDomain--><g class="entity" data-qualified-name="Entity.SensorDomain" data-source-line="75" id="ent0047"><path d="M660.28,706.0994 L787.7204,706.0994 A3.75,3.75 0 0 1 790.2204,708.5994 L797.2204,728.3963 L811.7204,728.3963 A2.5,2.5 0 0 1 814.2204,730.8963 L814.2204,742.8963 A2.5,2.5 0 0 1 811.7204,745.3963 L660.28,745.3963 A2.5,2.5 0 0 1 657.78,742.8963 L657.78,708.5994 A2.5,2.5 0 0 1 660.28,706.0994" fill="#FFFFFF" style="stroke:#000000;stroke-width:1;"/><line style="stroke:#000000;stroke-width:1;" x1="657.78" x2="797.2204" y1="728.3963" y2="728.3963"/><text fill="#000000" font-family="Verdana" font-size="14" font-weight="bold" lengthAdjust="spacing" textLength="114.4404" x="667.78" y="722.0945">SensorDomain</text></g><!--entity ServiceDomain--><g class="entity" data-qualified-name="Entity.ServiceDomain" data-source-line="76" id="ent0048"><path d="M851.38,706.0994 L982.6212,706.0994 A3.75,3.75 0 0 1 985.1212,708.5994 L992.1212,728.3963 L1006.6212,728.3963 A2.5,2.5 0 0 1 1009.1212,730.8963 L1009.1212,742.8963 A2.5,2.5 0 0 1 1006.6212,745.3963 L851.38,745.3963 A2.5,2.5 0 0 1 848.88,742.8963 L848.88,708.5994 A2.5,2.5 0 0 1 851.38,706.0994" fill="#FFFFFF" style="stroke:#000000;stroke-width:1;"/><line style="stroke:#000000;stroke-width:1;" x1="848.88" x2="992.1212" y1="728.3963" y2="728.3963"/><text fill="#000000" font-family="Verdana" font-size="14" font-weight="bold" lengthAdjust="spacing" textLength="118.2412" x="858.88" y="722.0945">ServiceDomain</text></g><!--entity BillingDomain--><g class="entity" data-qualified-name="Entity.BillingDomain" data-source-line="77" id="ent0049"><path d="M1046.55,706.0994 L1169.4445,706.0994 A3.75,3.75 0 0 1 1171.9445,708.5994 L1178.9445,728.3963 L1193.4445,728.3963 A2.5,2.5 0 0 1 1195.9445,730.8963 L1195.9445,742.8963 A2.5,2.5 0 0 1 1193.4445,745.3963 L1046.55,745.3963 A2.5,2.5 0 0 1 1044.05,742.8963 L1044.05,708.5994 A2.5,2.5 0 0 1 1046.55,706.0994" fill="#FFFFFF" style="stroke:#000000;stroke-width:1;"/><line style="stroke:#000000;stroke-width:1;" x1="1044.05" x2="1178.9445" y1="728.3963" y2="728.3963"/><text fill="#000000" font-family="Verdana" font-size="14" font-weight="bold" lengthAdjust="spacing" textLength="109.8945" x="1054.05" y="722.0945">BillingDomain</text></g><!--entity ReportsDomain--><g class="entity" data-qualified-name="Entity.ReportsDomain" data-source-line="78" id="ent0050"><path d="M660.56,805.3894 L795.4448,805.3894 A3.75,3.75 0 0 1 797.9448,807.8894 L804.9448,827.6863 L819.4448,827.6863 A2.5,2.5 0 0 1 821.9448,830.1863 L821.9448,842.1863 A2.5,2.5 0 0 1 819.4448,844.6863 L660.56,844.6863 A2.5,2.5 0 0 1 658.06,842.1863 L658.06,807.8894 A2.5,2.5 0 0 1 660.56,805.3894" fill="#FFFFFF" style="stroke:#000000;stroke-width:1;"/><line style="stroke:#000000;stroke-width:1;" x1="658.06" x2="804.9448" y1="827.6863" y2="827.6863"/><text fill="#000000" font-family="Verdana" font-size="14" font-weight="bold" lengthAdjust="spacing" textLength="121.8848" x="668.06" y="821.3845">ReportsDomain</text></g><!--entity SensorsDomain--><g class="entity" data-qualified-name="Entity.SensorsDomain" data-source-line="79" id="ent0051"><path d="M859.11,805.3894 L994.8834,805.3894 A3.75,3.75 0 0 1 997.3834,807.8894 L1004.3834,827.6863 L1018.8834,827.6863 A2.5,2.5 0 0 1 1021.3834,830.1863 L1021.3834,842.1863 A2.5,2.5 0 0 1 1018.8834,844.6863 L859.11,844.6863 A2.5,2.5 0 0 1 856.61,842.1863 L856.61,807.8894 A2.5,2.5 0 0 1 859.11,805.3894" fill="#FFFFFF" style="stroke:#000000;stroke-width:1;"/><line style="stroke:#000000;stroke-width:1;" x1="856.61" x2="1004.3834" y1="827.6863" y2="827.6863"/><text fill="#000000" font-family="Verdana" font-size="14" font-weight="bold" lengthAdjust="spacing" textLength="122.7734" x="866.61" y="821.3845">SensorsDomain</text></g><!--link View Layer to Controllers--><g class="link" data-entity-1="ent0002" data-entity-2="ent0011" data-link-type="dependency" data-source-line="86" id="lnk52"><path d="M1232.5234,121.6894 C1233.3165,121.6894 1234.1627,121.6894 1235.0612,121.6894 C1236.8581,121.6894 1238.864,121.6894 1241.0717,121.6894 C1249.9021,121.6894 1261.9593,121.6894 1276.7737,121.6894 C1306.4026,121.6894 1347.0605,121.6894 1394.9916,121.6894 C1490.8537,121.6894 1615.8088,121.6894 1739.81,121.6894 C1987.8125,121.6894 2232,121.6894 2232,121.6894 C2232,121.6894 2232,127.7 2232,136.8569 C2232,141.4353 2232,146.8003 2232,152.5938 C2232,155.4906 2232,158.4945 2232,161.5607 C2232,162.3273 2232,163.0978 2232,163.8714 C2232,164.0648 2232,158.2585 2232,158.4523" fill="none" id="View Layer-to-Controllers" style="stroke:#000000;stroke-width:1;stroke-dasharray:7,7;"/><polygon fill="#000000" points="2232,164.4523,2236,155.4523,2232,159.4523,2228,155.4523,2232,164.4523" style="stroke:#000000;stroke-width:1;"/><text fill="#000000" font-family="Verdana" font-size="13" lengthAdjust="spacing" textLength="76.0894" x="1703.96" y="117.7563">depends on</text></g><!--link Controllers to Domain Layer--><g class="link" data-entity-1="ent0011" data-entity-2="ent0021" data-link-type="dependency" data-source-line="87" id="lnk53"><path d="M2223.9489,227.6894 C2223.1999,227.6894 2222.4007,227.6894 2221.5521,227.6894 C2219.8549,227.6894 2217.9603,227.6894 2215.8753,227.6894 C2207.5352,227.6894 2196.1476,227.6894 2182.156,227.6894 C2154.1729,227.6894 2115.7735,227.6894 2070.5052,227.6894 C1979.9684,227.6894 1861.9556,227.6894 1744.8438,227.6894 C1510.62,227.6894 1280,227.6894 1280,227.6894 C1280,227.6894 1280,233.7169 1280,242.8995 C1280,247.4909 1280,252.871 1280,258.6808 C1280,261.5858 1280,264.5981 1280,267.6731 C1280,268.4418 1280,269.2144 1280,269.9903 C1280,270.3782 1280,264.7669 1280,265.1564" fill="none" id="Controllers-to-Domain Layer" style="stroke:#000000;stroke-width:1;stroke-dasharray:7,7;"/><polygon fill="#000000" points="1280,271.1564,1284,262.1564,1280,266.1564,1276,262.1564,1280,271.1564" style="stroke:#000000;stroke-width:1;"/><text fill="#000000" font-family="Verdana" font-size="13" lengthAdjust="spacing" textLength="76.0894" x="1625.91" y="223.7563">depends on</text></g><!--link Domain Layer to DAO--><g class="link" data-entity-1="ent0021" data-entity-2="ent0033" data-link-type="dependency" data-source-line="88" id="lnk54"><path d="M1271.2253,407.6894 C1270.8891,407.6894 1270.5438,407.6894 1270.1894,407.6894 C1269.4806,407.6894 1268.7353,407.6894 1267.9543,407.6894 C1266.3924,407.6894 1264.6874,407.6894 1262.8448,407.6894 C1259.1597,407.6894 1254.9238,407.6894 1250.1797,407.6894 C1231.2031,407.6894 1204.0938,407.6894 1171.5625,407.6894 C1106.5,407.6894 1019.75,407.6894 933,407.6894 C759.5,407.6894 586,407.6894 586,407.6894 C586,407.6894 586,408.6845 586,410.4416 C586,411.3201 586,412.3892 586,413.6195 C586,414.2347 586,414.8902 586,415.5823 C586,415.9284 586,416.2837 586,416.6477 C586,416.8297 586,417.0138 586,417.2001 C586,417.2933 586,411.387 586,411.4812" fill="none" id="Domain Layer-to-DAO" style="stroke:#000000;stroke-width:1;stroke-dasharray:7,7;"/><polygon fill="#000000" points="586,417.4812,590,408.4812,586,412.4812,582,408.4812,586,417.4812" style="stroke:#000000;stroke-width:1;"/><text fill="#000000" font-family="Verdana" font-size="13" lengthAdjust="spacing" textLength="76.0894" x="856.68" y="403.7563">depends on</text></g><!--link Domain Layer to Entity--><g class="link" data-entity-1="ent0021" data-entity-2="ent0043" data-link-type="dependency" data-source-line="89" id="lnk55"><path d="M1271.9079,334.6894 C1271.8307,334.6894 1271.7531,334.6894 1271.6751,334.6894 C1271.0511,334.6894 1270.4007,334.6894 1269.727,334.6894 C1264.3378,334.6894 1257.4606,334.6894 1250.6863,334.6894 C1237.1375,334.6894 1224,334.6894 1224,334.6894 C1224,334.6894 1224,403.1419 1224,473.7331 C1224,491.3809 1224,509.1624 1224,526.0414 C1224,534.4809 1224,542.6948 1224,550.5536 C1224,554.4829 1224,558.3235 1224,562.0591 C1224,562.5261 1224,556.9914 1224,557.455" fill="none" id="Domain Layer-to-Entity" style="stroke:#000000;stroke-width:1;stroke-dasharray:7,7;"/><polygon fill="#000000" points="1224,563.455,1228,554.455,1224,558.455,1220,554.455,1224,563.455" style="stroke:#000000;stroke-width:1;"/><text fill="#000000" font-family="Verdana" font-size="13" lengthAdjust="spacing" textLength="29.7832" x="1194" y="448.2963">uses</text></g><!--link DAO to Entity--><g class="link" data-entity-1="ent0033" data-entity-2="ent0043" data-link-type="dependency" data-source-line="90" id="lnk56"><path d="M594.3668,480.6894 C594.9693,480.6894 595.6028,480.6894 596.2665,480.6894 C601.5765,480.6894 608.827,480.6894 617.7355,480.6894 C635.5525,480.6894 660.002,480.6894 688.8252,480.6894 C746.4716,480.6894 821.6131,480.6894 896.1813,480.6894 C1045.3175,480.6894 1192.16,480.6894 1192.16,480.6894 C1192.16,480.6894 1192.16,517.1894 1192.16,553.6894 C1192.16,555.9706 1192.16,558.2519 1192.16,560.5242 C1192.16,561.0923 1192.16,561.6598 1192.16,562.2267 C1192.16,562.5101 1192.16,556.7933 1192.16,557.0764" fill="none" id="DAO-to-Entity" style="stroke:#000000;stroke-width:1;stroke-dasharray:7,7;"/><polygon fill="#000000" points="1192.16,563.0764,1196.16,554.0764,1192.16,558.0764,1188.16,554.0764,1192.16,563.0764" style="stroke:#000000;stroke-width:1;"/><text fill="#000000" font-family="Verdana" font-size="13" lengthAdjust="spacing" textLength="50.6226" x="926.83" y="476.7563">persists</text></g><!--SRC=[fLLDZvim4BtpAwRRGzj3j_TAhSG6Aq8Y0K6IAaUBJC1Qnr3RR1HL_Uyr0R9yfah2pVFUuF5xC_O7dU818UUK2KkzCf5JIG_0cK1zoX4ogTEi1QYKxh8Z4mdiALVOGd8Qlz848ttY219ZJKN2qT9CcxMzdYyY-0f1HGA7qQHC-kpH4qhSWItZb6cJLKZyObcVuCSDdw5lNF8BF7jBmbjpwxhXQSFm2ETwdk2Znv9Kl_02uOy5vcjO8IPCQKaroqG7M4ag58q7yGscBEQupdTKOmS9g3JY9P6ckb0T94Bvnc8CyNU1Ie_zRa65MHrGw5wYK9cqEKhTgpetHbf_xn1svYzNeUzv97nGtbacjCougKqr-iubehWYy7lAj70JdAw44wI1c1EyjK9fnp6gwTqkkaymAWUkrr7ro0JdXN4pb4aBlSVDY8GRTqRW6pZ-mdQNuFbpT_QWiqvsCBT7TtIso7bslE9jRT2O3cDGu_a8rBLwZ55hDmRPXRa0XMRnP56LSnFfNfOa4r37r2k4z-uRFzobinhu7jyTspUU1oICt6X5bgO37hJSzakdwHkA7SgUpUMu6CBOOVlXsjP-k3hrCDeske_M9lV3jKFzyDoyMScWd8lN9N2FpcIvSbTR8_N2TuZteCZ4zAK-6Pq3f74Q5FlzcD3duHlLUeWqSW-HMl4nu2pw2D88FaGg6TNaDctaBfdFke930h9qJ3Ux9Bhr7vtN_ldv9xIU9_WEEynDPoimZtaRA8czwwx3xM4blPoy_t4gemsjKAYiCgCJpStMvjvK_m00]--></g></svg>